<?xml version="1.0" encoding="utf-8"?>
<!-- Generator: Adobe Illustrator 19.0.0, SVG Export Plug-In . SVG Version: 6.00 Build 0)  -->
<svg version="1.1" id="Layer_1" xmlns="http://www.w3.org/2000/svg" xmlns:xlink="http://www.w3.org/1999/xlink" x="0px" y="0px"
	 viewBox="0 0 413 355" style="enable-background:new 0 0 413 355;" xml:space="preserve">
<style type="text/css">
	.st0{fill:#231F20;}
	.st1{fill:#010101;}
	.st2{fill:url(#XMLID_19_);}
	.st3{fill:#F9F9FA;}
	.st4{fill:none;}
	.st5{fill:#ED1C24;}
</style>
<g id="XMLID_79_">
	<rect id="XMLID_2_" x="124.3" y="297.4" class="st0" width="4.6" height="46.3"/>
	<path id="XMLID_3_" class="st0" d="M161.2,343.7c-3.1-0.1-5.5-2.6-5.6-5.7v-4.7c0-1.7,0.9-2.3,1.3-2.5c0.2-0.1,0.4-0.2,0.8-0.3
		l2.6-1.1v7.8c0,1.3,1,2.2,2.5,2.2c1.5,0,2.5-0.9,2.5-2.3v-5.2c0-2.7-2-6.2-2-6.2l-5.6-10.5c-2.1-3.9-2.1-6.8-2.1-7.2l0-4.7
		c0-3.2,2.6-6,5.8-6h2.9c3,0.1,5.6,2.9,5.6,6v1.8c0,1.5-0.8,2.2-1.3,2.5c-0.2,0.1-0.6,0.3-1.1,0.5l-2.3,1v-5.2c0-1.4-1-2.4-2.5-2.4
		c-1.5,0-2.5,1-2.5,2.4v4.4c0,2.1,1.3,5,2,6.2l5.6,10.5c2,3.7,2.1,6.6,2.1,7.1l0,5.9c0,3.2-2.6,5.7-5.8,5.7L161.2,343.7z"/>
	<path id="XMLID_4_" class="st0" d="M198,343.6v-41.7h-6.7v-4.5h20.2l-1.5,3.3c-0.2,0.5-0.8,1.2-2.4,1.2h-3.7
		c-0.7,0-1.2,0.5-1.3,1.2v40.5H198z"/>
	<path id="XMLID_5_" class="st0" d="M236.9,343.6c-3.1,0-5.7-2.5-5.8-5.7l0-34.9c0-3.1,2.6-5.7,5.8-5.7l3.6,0
		c3.1,0.1,5.5,2.6,5.5,5.7V338c-0.1,3.1-2.4,5.5-5.5,5.6l-0.1,0H236.9z M238.1,301.5c-1.5,0.1-2.5,1.1-2.5,2.4v33.2
		c0,1.3,1,2.3,2.5,2.4l0.7,0c1.5,0,2.5-1,2.5-2.4v-33.2c0-1.4-1-2.4-2.5-2.4L238.1,301.5z"/>
	<path id="XMLID_8_" class="st0" d="M276.9,343.7c-3.2,0-5.8-2.6-5.8-5.7v-34.9c0-3.2,2.6-5.7,5.8-5.7h2.9c3.1,0.1,5.5,2.6,5.5,5.7
		v7c0,1.5-0.7,2.1-1.1,2.3l-0.1,0.1l-3.3,1.5v-10.1c0-1.4-1.1-2.4-2.6-2.4c-1.5,0-2.5,1-2.5,2.4v33.2c0,1.4,1,2.4,2.5,2.4
		c1.5,0,2.6-1,2.6-2.4V331c0-1.6,0.8-2.2,1.2-2.5c0.1-0.1,0.5-0.2,1-0.5l2.2-1v10.9c0,3.1-2.4,5.6-5.5,5.7l-0.1,0H276.9z"/>
	<path id="XMLID_9_" class="st0" d="M320.1,343.6v-16.9c0-2.5-0.8-2.7-2.5-2.7h-2.6v19.6h-4.6v-46.3h8.6c3.2,0,5.8,2.6,5.8,5.8v14.4
		c0,2-0.7,3.3-1.4,4c0,0,0,0,0,0c0.3,0.3,0.5,0.6,0.6,0.9c0.5,1,0.7,1.6,0.7,3.5l0,17.8H320.1z M317.6,319.3c1.7,0,2.5-0.9,2.5-2.7
		v-12.5c0-1.5-1-2.5-2.5-2.5h-2.6v17.7H317.6z"/>
	<path id="XMLID_12_" class="st0" d="M360.3,343.6l-4.2-31l-4.3,31h-5.1l7-46.3h2.5c2.1,0,2.3,1.4,2.4,2.4l6.7,43.8H360.3z"/>
	<path id="XMLID_13_" class="st0" d="M21.2,343.7c-3.2,0-5.8-2.6-5.8-5.7v-34.9c0-3.2,2.6-5.7,5.8-5.7h2.9c3.1,0.1,5.5,2.6,5.5,5.7
		v7c0,1.5-0.7,2.1-1.1,2.3l-0.1,0.1l-3.3,1.5v-10.1c0-1.4-1.1-2.4-2.6-2.4c-1.5,0-2.5,1-2.5,2.4v33.2c0,1.4,1,2.4,2.5,2.4
		c1.5,0,2.6-1,2.6-2.4V331c0-1.6,0.8-2.2,1.2-2.5l0.1,0c0,0,3.2-1.4,3.2-1.4v10.9c0,3.1-2.4,5.6-5.5,5.7l-0.1,0H21.2z"/>
	<path id="XMLID_14_" class="st0" d="M94.4,343.6v-16.9c0-2.5-0.8-2.7-2.5-2.7h-2.6v19.6h-4.6v-46.3h8.6c3.2,0,5.8,2.6,5.8,5.8v14.4
		c0,2-0.7,3.3-1.4,4c0,0,0,0,0,0c0.3,0.3,0.5,0.6,0.6,0.9c0.5,1,0.7,1.6,0.7,3.5l0,17.8H94.4z M91.8,319.3c1.7,0,2.5-0.9,2.5-2.7
		v-12.5c0-1.5-1-2.5-2.5-2.5h-2.6v17.7H91.8z"/>
	<path id="XMLID_17_" class="st0" d="M63.1,343.6c-0.9,0-1.7-0.7-1.8-1.6l-4-29.4l-4.1,29.4c-0.1,0.9-0.9,1.6-1.8,1.6h-1.3
		c-0.5,0-1-0.2-1.4-0.6c-0.3-0.4-0.5-0.9-0.4-1.5l6.5-42.6c0.1-0.9,0.9-1.6,1.8-1.6h0.9c2.1,0,2.3,1.4,2.4,2.4l6.4,41.7
		c0.1,0.5-0.1,1.1-0.4,1.5c-0.3,0.4-0.9,0.6-1.4,0.6H63.1z"/>
	<path id="XMLID_18_" class="st0" d="M389.7,343.6v-41.7H383v-4.5h20.2l-1.5,3.3c-0.2,0.5-0.8,1.2-2.4,1.2h-3.7
		c-0.6,0-1.2,0.5-1.3,1.2l0,0.1l0,40.5H389.7z"/>
</g>
<g id="XMLID_80_">
	<g id="XMLID_127_">
		<g id="XMLID_208_">
			<path id="XMLID_227_" class="st1" d="M337.1,234.7c-1.5-4.1-3.7-3.5-6.2-1.8c0.1,0.1,0.2,0.1,0.3,0.2c-0.1,0-0.2-0.1-0.3-0.2
				c-0.6-0.1-1.2-0.1-1.8-0.2c-1.1-2.4-2.9-2.8-4.8-3c-0.7-0.3-1.4-0.5-2.2-0.6c0.2-0.8,1.2-0.7,1.9-0.9c0.7-0.2,1.9,0.7,1.7-1.4
				c-2.8-1.8-5.7-1.6-8.5-0.1c-2.3-2.6-5.3-1-7.8-2c-1-1.5-2.2-1.5-3.4-0.6c-0.6-0.1-1.3-0.1-1.9-0.2c-2.1-3.2-5.7-2.9-8-5.8
				c-1-0.3-2-0.7-3-1c-1.4,0-2.8-0.4-4.1,0.6c-1.6-0.5-2.4,1.9-3.9,2c-0.3,0-0.5-0.1-0.8-0.1c0-0.3,0-0.6,0-0.9
				c0.3-0.2,0.7-0.5,0.7-0.7c0-0.8-0.5-0.8-0.9-0.7c-0.6,0.2-1.3,0.5-1.9,0.7c-0.9,0.3-1.7,0.5-0.6,1.9c0.4,0.5,0.9,1,1.3,1.4
				c-0.9,1-1.8,0.4-2.6,0.1c-0.2-1.7-1.2-3.2-2.2-2.8c-1.1,0.4-0.1,1.9,0.3,2.8c-1.1-0.1-2.1-0.1-3.2-0.2c-0.2-1.1,0.5-3.2-1.4-2.5
				h0c-1.6,0.1-3.2,0.1-4.7,0.2l0,0h0c-1.7-0.1-3.4-0.2-5.1-0.3c-0.2-0.8-0.7-1.4-1.3-1.6c-1.1-1.3-2.2-1.4-3.3,0
				c-1.8,0.3-3.8-0.1-5.5,1l0,0l0,0c-1.2-0.4-2.7,0.6-3.8-1l0.1,0.1c0-0.2,0.1-0.3,0.3-0.4c-0.1,0.1-0.2,0.3-0.3,0.4
				c0.9-0.4,2.3,0.5,2.5-1.4c0.1-0.6-0.8-0.5-1.4-0.4c-1.3-0.8-2.6-0.3-3.9,0.1c-0.6,0-1.3-0.1-1.9-0.1c-1.2-0.1-2.4-0.2-3.6-0.3
				c0,0,0,0,0,0c-1.5-0.6-1.8,1.3-2.6,2.2c-1.6,0-2.7-2.6-4.5-1.8c-3.3,1.4-6.6,0.6-9.9-0.1c0-0.3,0-0.5,0-0.8
				c2.7-0.7,3.4-5.7,6.6-5.5c1,0.1,1.9,0.5,2.9-0.4c-1-0.9-1.9-0.3-2.9-0.3c-2-0.1-4.2-1-6,1.2c-0.3,0.3-1.1,0.6-1.2,0.4
				c-2-3.9-3.8-0.5-5.7,0.2c0,0,0,0,0,0c0,0,0,0,0,0c0,0,0,0,0,0l0,0c-0.3-0.1-0.6-0.2-0.9-0.3c-2-3.5-4.8-1.9-7.3-2.3
				c-1.6-0.2-3.2-0.4-4.8,0c-4.2,0.3-8.5,0.6-12.7,0.8c-2,0.1-3.9,0.3-5.7,1.6c-0.2,0.1-0.4,0.1-0.6,0.2c-2.4-2.1-4.8-0.3-7.3-0.1
				c-2.2,0.7-4.5-1-6.6,0.7c0.1,0.1,0.1,0.3,0.2,0.4c0,0-0.1,0-0.1,0v0l-0.1-0.4c-1.4-0.4-1.5,3.3-3.2,1.7c0-0.2,0-0.5,0-0.7
				c-1-2.9-2.7-2.7-4.5-1.7c-2.2,0.3-4.4-0.7-6.5,0.4c0,0,0,0,0,0c-1-0.5-1.9,0-2.8,0.4c-0.4,0-0.8,0-1.3-0.1
				c-0.4,0-0.9,0.1-1.3,0.1c-2.8-2-5.6-2.8-8.5-2.9c-0.1,0-0.2,0.1-0.3,0.1c0.9,3.7,1,7.3,0.2,11c-0.2,4.1-1.4,7.9-3.7,11.5
				c-0.9,2.3-1.9,4.6-2.8,6.9c3.7,1.6,7,3.9,9.6,6.5c0.9,0.9,1.8,1.9,2.6,3c2.2,0.4,4.3,1.2,6.3,2.2c3.8,1.2,7.2,3.4,10,6.4
				c0.9,0.8,1.7,1.7,2.4,2.6c5.7,0,11.5-0.1,17.2-1.1c2,0,4,0.1,5.9,0.1c0.4,0.5,0.8,0.9,1.4,0.9c0.4,0,0.7-0.2,1-0.4
				c0.7,0.2,1.4,0.3,2.1,0.4c1,0.2,2.1,0.5,2.8-1.1c6.2,0.1,12.5,0,18.7,0.3c8.2,0.3,16.4-0.8,24.6-1.1c0.8-0.5,1.7-0.3,2.6-0.3
				c5.8-0.1,11.7-0.2,17.6,0.3c0.5-0.2,1-0.5,1.5-0.9c0.3,0,0.6,0,0.9,0c0,0.1,0,0.1,0,0.2c0.7,0.4,1.6,0.1,2.3,0.6
				c2.3,0.8,4.7-0.1,7,0c3.8,0.2,7.7,0.2,11.5-0.4c0.4-0.1,0.8-0.1,1.2-0.2c1.1,0,2.2,0.4,3.6-0.9c-3.8-0.3-7.2,0.5-11.3-1.1
				c4.3-1.5,8-0.3,11.3-2.4c0.2-1.3-0.9-0.9-1.1-1.6c0.8-0.4,1.7-0.8,2.5-1.1h0l0,0c2,0,3.9,0,5.9,0c0.5,0,0.9,0,1.4,0.1
				c1.1,0.1,2.2,0,2.6-1.7c1.1,0.2,2.3,1.4,3.1-0.2c0.4-0.7-0.6-1.2-1.1-1.6l0,0c0-0.5,0-1.1,0-1.6c2.5-0.3,4.7-1.5,6.6-3.6
				c1.9-0.1,3.8-0.3,5.6-0.4c1,0,2.1,0,3.1-0.2c1-0.1,2-0.1,3-0.2c0.7,0,1.4,0,2.1,0c2.4-0.6,4.9,2.2,7.1-0.7
				c-0.2-0.7-0.5-1.4-0.7-2.1c0.7-0.2,1.3-0.4,2-0.6c0.7,0.6,1.3,0.5,1.6-0.6c0.5,0.7,1.4,0.5,1.8,1.3
				C337.3,236.5,337.4,235.7,337.1,234.7z"/>
			<polygon id="XMLID_226_" class="st1" points="302,246.9 302,246.9 302,246.9 			"/>
			<path id="XMLID_225_" class="st1" d="M304.1,220c1-0.5,2.8,1.2,3.1-1.5c0.2-1.7-1.1-1.3-1.9-1.4
				C305.5,218.5,301.3,216.7,304.1,220z"/>
			<path id="XMLID_224_" class="st1" d="M245.3,209.2c0.5-2.9-1.1-1.1-1.8-1.4c0.1,0.1,0.2,0.1,0.2,0.2c-0.2,0-0.3-0.1-0.4-0.3
				c-1.2-0.1-2.6-0.7-3.5,1.2C241.7,209.2,243.5,210.4,245.3,209.2z"/>
			<path id="XMLID_223_" class="st1" d="M298.1,209.3c-0.2-0.3-0.4-0.6-0.7-0.9c-0.8,0.8-2.1,0.3-3,3.4
				C296,210.2,297.7,212.7,298.1,209.3z"/>
			<path id="XMLID_222_" class="st1" d="M160.9,209.3c-1.7-0.7-3.4-1.1-5.1-0.8C157.3,210.4,159,210.5,160.9,209.3z"/>
			<path id="XMLID_221_" class="st1" d="M257.6,210c1.8-0.8,3.4-0.6,4.7-2.3C260.5,207.5,258.8,206.2,257.6,210z"/>
			<path id="XMLID_220_" class="st1" d="M252.1,207.7c-1.8-0.2-2.7-0.7-3.7,0.4C249.5,209.9,250.4,208.9,252.1,207.7z"/>
			<path id="XMLID_219_" class="st1" d="M264.8,208.4c0.3,0.2,0.6,0.1,0.9,0.1l0,0l0,0c1.1,0.8,2.4,1.2,3.4,0.7
				c1.4-0.5,0.5-1.2-0.2-1.7c-1.4,0-2.8,0-4.1,0C264.4,207.7,264.4,208.2,264.8,208.4z"/>
			<path id="XMLID_218_" class="st1" d="M279.5,216.4c0,0.7,0.5,0.8,0.9,0.8c0.3,0,0.5-0.3,0.7-0.5c-0.2-0.8-0.6-1.1-1-1
				C279.9,215.7,279.5,216.1,279.5,216.4z"/>
			<path id="XMLID_217_" class="st1" d="M332.7,243.9c-0.2-0.2-0.7-0.3-0.6,0.3c0.1,0.5,0.4,0.9,0.6,1.2c0.5-0.2,0.7-0.3,0.9-0.3
				C333.3,244.6,333.1,244.2,332.7,243.9z"/>
			<path id="XMLID_216_" class="st1" d="M330.9,226.7c0.1,1.4,0.7,2.4,1.4,3.3C332.2,228.6,332.5,226.9,330.9,226.7z"/>
			<path id="XMLID_215_" class="st1" d="M223,205.2c-0.2-0.1-0.4-0.1-0.5,0.1c-0.1,0.1-0.1,0.4-0.1,0.6c0.3,0,0.5,0,0.8,0
				C223.1,205.6,223.1,205.3,223,205.2z"/>
			<path id="XMLID_214_" class="st1" d="M257.7,211.9c-0.1-0.2-0.2-0.3-0.3-0.5c0,0-0.2,0.1-0.2,0.2c0.1,0.2,0.2,0.3,0.3,0.5
				C257.6,212.1,257.6,212,257.7,211.9z"/>
			<path id="XMLID_213_" class="st1" d="M283.1,209.5c0-0.8-0.6-0.9-1.1-1v0c0,0,0,0,0,0c-1.8,0.1-3.7-0.8-6.1,1.5
				c2.6,0,4.5,0,6.3,0C282.6,210.2,283.1,210.2,283.1,209.5z"/>
			<path id="XMLID_212_" class="st1" d="M243.4,207.7c0,0.1,0.1,0.1,0.1,0.1C243.5,207.7,243.4,207.7,243.4,207.7z"/>
			<path id="XMLID_211_" class="st1" d="M270.1,206c-0.1-0.2-0.3-0.3-0.4-0.5c-0.1,0.1-0.3,0.3-0.4,0.4c0.1,0.2,0.3,0.4,0.4,0.5
				C269.8,206.3,270,206.1,270.1,206z"/>
			<path id="XMLID_210_" class="st1" d="M312.1,241.5c0.1,0.1,0.3,0.4,0.4,0.4c0.2,0,0.3-0.3,0.5-0.4c-0.1-0.1-0.3-0.4-0.4-0.4
				C312.4,241.1,312.3,241.4,312.1,241.5z"/>
			<path id="XMLID_209_" class="st1" d="M264.9,213.3c0.2,0.1,0.3,0.3,0.5,0.4c0.1-0.1,0.3-0.2,0.4-0.4c-0.2-0.1-0.3-0.4-0.5-0.4
				C265.1,213,265,213.2,264.9,213.3z"/>
		</g>
		<g id="XMLID_170_">
			<path id="XMLID_207_" class="st1" d="M338.8,215.9c0.9-0.1,1.7-0.2,2.6-0.3c0.3,0,0.7,0,1,0c0.1,1,0.6,1.9,1.2,2.6
				c-1-0.1-1.9-0.1-2.9-0.2C339.5,217.8,338.5,217.3,338.8,215.9z"/>
			<path id="XMLID_206_" class="st1" d="M340.4,234.4c0.1-1.1,1.1-1.6,2-1.2c1.1,0.4-0.9,1.3,0,2c0.6,1.1,0.4,2-1.3,1.8
				c-1.2-0.2-2.6-0.8-2.7-2C338.4,234,339.7,234.4,340.4,234.4z"/>
			<path id="XMLID_205_" class="st1" d="M350,226.8c-1.1,1.1-2.2,0.7-3.3,0H350z"/>
			<path id="XMLID_204_" class="st1" d="M280.3,237.9c1.1,0.2,1.3,0.8,1.4,1.4c0.1,0.7-0.5,1.1-1.3,1.1c-0.8,0-1.4-0.5-1.2-1.2
				C279.4,238.8,279.9,238.3,280.3,237.9z"/>
			<path id="XMLID_203_" class="st1" d="M210.5,245.9c0.5,2.2-0.8,2.5-3,2.5C208.6,247.3,209,246.2,210.5,245.9z"/>
			<path id="XMLID_202_" class="st1" d="M145.2,207.9c1.1,0,2.2-0.1,3.3-0.3c1.2-0.5,2.5-0.6,3.7-0.8c1.1-0.2,2.2,0.2,3.2,0.4
				c0.6,0,1.1,0.1,1.7,0.1c0.8,0,1.6,0,2.4,0c0.9,0,1.7,0,2.6,0c2.9-0.1,5.8,0.2,8.6-0.2c0.1,0,0.1-0.1,0.2-0.1c0.3,0,0.6,0,0.9,0
				c1.4,1.6,2.8,3.2,5.2,3.7c-0.2-1.1-1.1-1.9-1.8-2.8c0.3,0,0.7-0.1,0.9-0.2c0.1,0,0.2,0,0.3,0.1c3.1,0.4,6.2,0.1,9.3,0
				c0.7-0.2,1.5-0.1,2.3-0.2c1-0.3,2-0.1,2.9,0.4c0.4,0.2,0.7,0.2,1.1,0.3c3,0,6,0.7,9.1,0.2c0.1,0,0.1,0,0.2,0
				c0.3,0.3,0.7,0.4,1.3,0.2c0.2-0.1,0.2-0.2,0.2-0.3c0.1,0,0.2,0,0.4,0c9,0.9,18,0.6,27-0.5c1.3-0.2,2.6-0.3,3.2-1.3
				c1.2,1.8,3.4,1.5,5.3,1.5c3.6,0,7.1-0.7,10.7-0.8c0.7,0,1.4-0.1,2.1,0c0.8,0.2,1.7,0.1,2.6,0.1c0.5,0.2,1.1,0.4,1.8,0.4
				c0.1-0.1,0.1-0.2,0.2-0.3c0.7,0,1.4,0,2.1,0c0.2,0,0.4,0,0.7,0c0,0.1,0.1,0.1,0.1,0.2c0.3-0.1,0.6-0.2,0.9-0.2
				c0.3,0,0.7-0.1,1-0.1c0.3,0.2,0.6,0.4,0.9,0.7c3.5-0.1,6.9-0.1,10.4-0.2c2.9-0.2,5.8,0.3,8.6-0.8c0.9,0.3,1.7,0.4,2.6,0.1
				c3.2,0,6.3-0.1,9.5-0.1c2.6,0,5.2-0.1,7.8-0.1l0,0c1.7,0,3.5,0,5.2,0.1c0.2-0.2,0.5-0.3,0.8-0.3c-0.3,0.1-0.5,0.2-0.8,0.3
				c2-0.3,4.6,1,6-1.2c-0.2-0.1-0.4-0.1-0.7-0.2c-0.6,0-1.3,0.1-1.9,0.1c-3.2,0-6.3,0-9.5,0.1c-2.3,0-4.6-0.1-7-0.1
				c-3.2,0-6.3,0-9.5,0.1c-2.3-0.3-4.6-0.5-6.9-0.8v0c-1.4-0.1-2.7-0.2-4.1-0.2l0,0c-1.7-0.8-3.6-0.6-5.4-0.5c-1.1,0-2.3,0-3.4,0
				c-12.5-0.3-25.1-0.4-37.6,0.3c-1.7,0-3.5,0-5.2,0.3c-10.7-0.9-21.4-1.3-32.2-1.5h0c-2.5-0.5-5-0.9-7.5,0c-3,0-6.1,0.1-9.1,0.1
				c-0.6,0-1.2,0-1.7,0c-5.2-0.6-10.5-0.7-15.8-1.1C151.7,204.5,148.6,206.5,145.2,207.9z"/>
			<path id="XMLID_198_" class="st1" d="M333,224.1c-0.4-0.3-0.7-0.6-1.1-0.9c0.4-1.9-1-2.6-2.8-2.8c-1.1-0.1-2.2,0.2-2.5,1
				c-2.2-0.6-3.8,0.1-4.9,1.8c-0.7-0.9-1.8-1.2-3.2-1c-0.2,0.1-0.4,0.1-0.6,0.2c-0.5-0.2-1-0.2-1.6,0c-0.7-1.2-1.6-1.1-2.5-0.8
				c-0.2-0.2-0.3-0.5-0.5-0.8c-0.7-0.6-1.6-0.7-2.5-0.7c-1.5-0.2-2.9,0.2-4.3,0.3c-0.2-0.4-0.5-0.8-0.7-1.3l0,0l0,0
				c0-0.4,0.1-0.8,0.1-1.3c-1.1-0.6-2.2-0.9-3.5-0.7c-2.6,0-5.2,0.2-7.7,0.8c-1.7-0.1-3.5-0.2-5.2-0.2c-1.8-1.7-3.9-2.4-6.6-2.1
				c-6,0.6-11.9-0.7-17.9-0.3c-1.3,0.1-2.5-0.1-3.3,1c0,0,0,0.1,0,0.1c-0.9,0-1.7,0.2-1.7,1.5l-0.4-0.1l-0.4,0
				c-1.7-0.4-3.5-1.7-5.2,0.1c-0.6,0-1.1-0.1-1.7-0.1c-2.1-2.7-4.1-2.3-6,0.3c-1,1.1-2.3,0.6-3.6,0.5c-0.8,0.1-1.6,0.1-2.4,0.2
				c-1.1-0.2-2.2-0.3-3,0.7c0.8,0.7,1.8,0.3,2.6,0.5c1.8,0.1,3.6,0.3,5.4,0.4c2,0.8,4.1,0.8,6.1,0c3.1,0,6.1,0,9.2-0.1
				c0.5,0.2,1,0.3,1.4,0.2c2.5,1.5,5.2,2.1,8.2,1.6c-2.7,0.9-5.9-0.8-8.3,1.4c-0.1,0.2-0.2,0.4-0.2,0.5c-11.6-0.1-23.1-0.8-34.7,0.2
				c-0.1-0.1-0.2-0.2-0.3-0.3c-1.9-1.2-4-0.9-6.2-0.8c-7.1,0.3-14.2,1.3-21.3,1.1c-0.9-0.1-1.7-0.1-2.6,0.1c-0.7-2.3-2.8-3.6-6.7-4
				c-0.1,0-0.2,0.1-0.3,0.2c-0.7-1.1-1.9-1.4-3.2-1.7c0.3,1.3,1.3,2.3,2.6,3v0c0.8,1.1,1.4,2.1-0.9,2.3c-0.3,0.2-0.7,0.4-1,0.6
				c-1.7-0.1-3.3-0.1-5-0.3c-1.2-0.2-1.8,0.1-2,0.6c-0.5,0-1.1-0.1-1.6-0.2c-1.4,0.3-2.9,0.5-4.3,0.8c0.5-0.3,0.9-0.7,1.1-1.7
				c-0.6-0.9-1.6-1-2.6-1.4c-1.4-0.8-2.9-1-4.5-0.8c-3.5,0.4-7,0.6-10.6,0.9c-0.2,0-0.5,0-0.7,0c0-0.1,0-0.1,0-0.2
				c1.4-0.4,1.3-1.3,0.9-2.2c0-0.3,0-0.6-0.1-0.9c0-0.2,0.1-0.4,0.2-0.5c0.5,0,1.1-0.1,1.6-0.1c2,0.5,3.5-0.3,5.1-1.3
				c-1.5-1.2-3.1-0.5-4.8-0.5c-0.2-0.2-0.4-0.4-0.6-0.6c-1.3-0.5-2.7-0.1-4-0.3c1.8-0.7,4.8,0.5,5.1-2.5c-4.8-0.3-9.7-0.5-14.5-0.2
				c-0.3-0.3-0.7-0.6-1.1-0.9c0.2,2.3,0,4.5-0.5,6.8c-0.2,4.1-1.4,7.9-3.7,11.5c-0.9,2.3-1.9,4.6-2.8,6.9c3.7,1.6,7,3.9,9.6,6.5
				c0.3,0.3,0.5,0.5,0.8,0.8c0.9,0,1.8-0.2,2.6-0.4c10.7-2.6,21.6-1.7,32.5-2.1c2.3-0.1,3.2-0.6,2.4-2.6c1.1,0.5,3.7-2.8,3.4,1
				c1.3,1.9,2.8,1.9,4.2,0.1c2.3-3.5,5.8-0.9,8.7-1.3c1.1,0.7,2.3,1.4,3.4,2.1l0,0c0.3,0.5,0.6,1,0.9,1.5c-1,0.8-3.2-1.8-3.5,0.9
				c3.2,2.5,5.4,1.7,6.9-1.5c0.3,0,0.6,0,0.9,0c0.3,0.9,0.8,1.8,2,2l0,0l0,0c2.1,0.1,4.2,0.4,6.2-0.3c0.2,0,0.3-0.1,0.5-0.2
				c9.5-1.6,19,0.3,28.5,0.1c2.2,0.9,4.3,1,6.6,0.1c2.1-0.9,4.4-1.3,6.5,0c0.9,0.9,2.1,0.6,3.2,0.7c1.6,0.7,3.2,0.8,5.4,0.3
				c-1.7-0.6-3.1-1-4.4-1.4l0,0.3c0,0-0.1,0-0.1,0c0.1-0.1,0.1-0.2,0.2-0.3c-1.3-0.6-2.9-0.7-3.5-2.1c-2.1-1.1-4.1-0.9-6.1,0.1
				c-0.5-0.7-0.3-1.5,0.1-2.2c0.6-0.3,1.2-0.6,1.7-0.9c1.4,0,2.7,0,4.1,0c1.8,0.3,3.9,2.2,5.4-0.5c2.5-1,5.3,1.8,7.8-0.3
				c1.4-0.3,3-0.5,4.1-1.4c0.7-0.5,1.4-0.9,2.1-1.4c0.5,0.2,1,0.4,1.5,0.6c0.9,0.3,1.8,0.6,2.7,0.9h0c-0.1,0.5-2.1,1.2,0.1,1.4
				c2.4,0.3,3.6-2.1,5.9-2.2c0.3,0.3,0.6,0.5,0.9,0.8c1,0.4,1.5-0.1,1.8-0.8c0-0.1,0-0.2,0-0.4c1.3-4.6,1.3-4.6-4.4-3.3
				c-0.6,0-1.2,0-1.8,0c-0.6,0-1.1-0.1-1.7-0.1v0c0.3-1.2,0.7-2.4,0-3.6c7.6,0.3,14.7-3.3,22.4-2.3c2.1,0.3,4.1-0.2,6.1,1.5
				c2.1,1.7,2.9-0.5,3.5-2.1c1.4-0.1,2.7-0.2,4.1-0.2c1.4,0.2,2.8,0.5,3.7,1.6c-0.2,0.7-1.7,1.3-0.8,2c0.5,0.4,1.2-0.7,1.6-1.3
				c0.9-0.8,1.5-1.9,1.7-3c1.7,0.7,3.4,0.8,5.3,0.7v0l0,0c-0.6,0.4-1.2,0.8-2,1.3c1.7,0.4,2.3-0.4,2.8-1.2c0.3,0,0.6,0,0.9,0
				C336.8,222.5,333.7,224.7,333,224.1z M167.5,225.7c-0.1,0-0.2,0-0.3-0.1c1.1,0.1,2.1,0.3,3.2,0.2c0.6-0.1,1.3-0.1,2,0
				C170.8,226,169.2,226,167.5,225.7z M268.6,232.9c-0.7,0-1.4,0-1.6,0.8c0,0.2,0,0.3,0.1,0.4c-1.4,0-2.8-0.1-4.3,0
				c-1.1,0.2-2.1,0.7-3.1,1.1c-1.7,0-3.3,0-5,0c-0.8,0-1.7,0-2.5,0c-0.9-0.2-1.8-0.6-2.7-0.7c-0.6-0.3-1.2-0.5-1.9-0.5
				c-0.4-0.1-0.7-0.1-1.1,0c-0.4,0-0.9,0.1-1.4,0.1c-0.3-0.1-0.5-0.2-0.8-0.2c-0.3-0.2-0.6-0.3-1-0.4c-3.2-0.8-6.1,1-9.2,0.6
				c-0.2,0-0.3,0.1-0.5,0.1c-0.2-0.2-0.3-0.4-0.5-0.5c1.3-0.8,0.1-1.1-0.5-1.4c-0.5-0.3-1.2-0.3-1.2,0.3c0,0.3,0.5,0.7,0.8,1.1
				c-0.2,0.4-0.6,0.7-1,0.9c-0.6,0.1-1.2,0.1-1.7,0.1c-0.2-0.1-0.3-0.2-0.4-0.3c-2.2-3.3-2.6-0.7-3.4,0.4c-0.1,0-0.3,0-0.4,0
				c-0.4,0-0.7,0-1.1,0c-0.5-0.2-1-0.4-1.5-0.5c-0.9,0.1-1.8,0.2-2.6,0.3l0,0c-1.1-0.1-2,0.1-2.5,0.9c-0.1,0-0.2,0-0.3,0
				c-1.1-0.3-2.2-0.7-3.3-1c-0.2,0.5-0.1,0.8,0.1,1c-1,0-1.9,0.2-2.5,0.9c-0.9-0.8-2-1.2-3.3-1.4c-0.4,0-0.7,0-1.1,0.1
				c-0.7-0.9-1.9-1.4-3.5-1.5h0l0,0c-0.9-0.5-1.8-0.3-2.6,0l0,0l0,0c-0.6,0.2-1.1,0.2-1.6,0.1c0.4-0.6,0.8-1.3,0.9-2
				c1.4,0.4,2.9,0.2,4-0.5c0.5,0.1,0.9,0.1,1.4,0.1c6.4-0.5,12.8-1.1,19.2-1c0.5-0.1,0.9-0.2,1.3-0.4c0.9,0.6,2.1,0.5,3.4,0.2
				c1.9-1.7,4.5-0.8,6.7-1.3c6.4-0.4,12.9-0.1,19.3-0.2c2.1,0,4.2,0,6.2-0.8c-0.3,1.2,0.5,2.1,1.7,2.9c0.9,0.6,2,0.8,3.2,0.4
				c1.3-0.4,1.1-1.3,0.9-2c1.9,1.5,4,2.2,6.4,1.3c-0.1,0.6-0.1,1.2,0.3,1.7C272.6,232.7,270.4,231.6,268.6,232.9z"/>
			<path id="XMLID_197_" class="st1" d="M365.6,241c-1.9,0-3.4,0-4.9,0C362.2,240.7,363.8,239.9,365.6,241z"/>
			<path id="XMLID_196_" class="st1" d="M292,238c0.5,0.1,1,0.3,1.6,0.4c-0.9,1.1-2.2,2-3.4,0.7C289.7,238.4,291.3,238.3,292,238z"
				/>
			<path id="XMLID_195_" class="st1" d="M201.1,241.7c0.4-0.2,0.8,0,0.8,0.4c-0.2,0.6-0.6,1.1-1.3,1.2c-0.2,0-0.6-0.6-0.6-0.7
				C200.3,242.3,200.7,242,201.1,241.7z"/>
			<path id="XMLID_194_" class="st1" d="M348.6,235.9c0.5-0.1,1.2,0.1,1.1,0.7c0,0.2-0.5,0.4-1.3,1c-0.2-0.4-0.5-0.7-0.5-1
				C348,236.3,348.4,235.9,348.6,235.9z"/>
			<path id="XMLID_193_" class="st1" d="M325.7,232.2L325.7,232.2c0-2.1,1.6-2,3.2-1.5c0.7,0.2,1.9,0.6,1.6,1.4
				c-0.7,1.8-2.2-0.3-3.2,0.4c-0.2,0.1-0.5,0.3-0.7,0.4c0.2,1.1-0.7,1.8-1.6,1.3C323.9,233.5,325.9,233,325.7,232.2z"/>
			<path id="XMLID_192_" class="st1" d="M233.1,246.9c-0.8,0.2-1.6,0.3-2.8-0.3C231.7,246.4,232.5,246,233.1,246.9z"/>
			<path id="XMLID_191_" class="st1" d="M268.9,240.7c-0.1-0.1,0.2-0.3,0.3-0.5c0.3,0.2,0.7,0.3,0.9,0.6c0.3,0.3,0.2,0.7-0.4,0.6
				C269.4,241.2,269.1,240.9,268.9,240.7z"/>
			<path id="XMLID_190_" class="st1" d="M357.8,231.6c1.2-0.3,2.3-0.5,3.5-0.8c0.3-0.2,0.7-0.4,1-0.7c0.5,0.4,1.1,0.8,1.9,1
				c0.4,0.1,0.7,0.2,1.1,0.3c-1.3,0.2-2.6,0.2-4,0.1c-1,0.8-2.3,0.6-3.5,0.6c-1,0.2-2.1,1-3.2-0.1
				C355.6,231,356.7,231.5,357.8,231.6z"/>
			<path id="XMLID_189_" class="st1" d="M285.5,245.3c-1.6,0.2-2.8,0.8-3.8-0.3C282.9,244.6,284,244.4,285.5,245.3z"/>
			<path id="XMLID_188_" class="st1" d="M334.6,235.3c0.4,0,0.7,0.1,1.1,0.3c-0.3,0.3-0.4,0.5-0.6,0.5c-0.4,0-0.7-0.2-1.1-0.3
				C334.3,235.6,334.4,235.3,334.6,235.3z"/>
			<path id="XMLID_187_" class="st1" d="M212.4,202.1c0.2-0.1,0.3-0.3,0.5-0.4c0.2,0,0.5,0.1,0.7,0.2c-0.1,0.1-0.3,0.3-0.4,0.4
				C212.8,202.2,212.6,202.1,212.4,202.1z"/>
			<path id="XMLID_186_" class="st1" d="M252.8,202.3c-0.2,0-0.5-0.1-0.7-0.2c0.2-0.1,0.3-0.3,0.5-0.4c0.2,0.1,0.5,0.1,0.7,0.2
				C253.1,202,253,202.2,252.8,202.3z"/>
			<path id="XMLID_185_" class="st1" d="M333.6,218.1c-0.9-0.1-1.7-0.2-2.6-0.3c-0.6,0.1-1.2,0.2-1.8,0.3c-2.1,1.5-3.9,1.5-5.2-0.7
				l0.1-0.2c-0.1-0.2-0.3-0.3-0.6-0.3c0.2,0.1,0.4,0.2,0.6,0.3c-1.2,0-2.3-0.1-3.5-0.1c-0.6,1.6-2,1.1-3.4,0.9l0,0
				c-2.6-0.2-5.2,0.9-7.7,0c0.8-0.5,1.6-1,2.4-1.5c1.4-0.2,2.9-0.7,4.3,0c1.2-0.2,2.5-0.4,3.7-0.6c0.5,0,1.1,0,1.6,0
				c2.8-0.4,5.7-0.3,8.5,0c1.5,0,3.1-0.7,4.4,0.5c0.5-0.1,1-0.1,1.6-0.2c0.4,0.3,0.5,0.7,0.2,1.2
				C335.6,218.4,334.4,217.8,333.6,218.1z"/>
			<path id="XMLID_184_" class="st1" d="M280.4,211.1c2.5-1.4,4.3-1.8,3.8,1.7c-0.3,0-0.6,0-0.9,0
				C282.7,212,280.9,212.6,280.4,211.1z"/>
			<path id="XMLID_183_" class="st1" d="M269.8,213.6c-1.4,0.2-2.9,0.4-4.3,0.6C266.5,211.9,268.1,212.8,269.8,213.6z"/>
			<path id="XMLID_182_" class="st1" d="M328.6,210.1c0.8-1.2,1.7-1.2,2.6-0.7c0.2,0.1,0.3,0.7,0.2,0.8
				C330.6,210.8,329.6,210.6,328.6,210.1z"/>
			<path id="XMLID_181_" class="st1" d="M326.9,211.6c0.1,0,0.3,0.3,0.5,0.4c-0.3,0.2-0.6,0.4-0.9,0.6c-0.2-0.2-0.4-0.4-0.6-0.6
				C326.3,211.9,326.6,211.7,326.9,211.6z"/>
			<path id="XMLID_180_" class="st1" d="M175,216.4c1.8-0.7,3.1-0.8,4.5-0.1C178.2,216.4,176.9,217.5,175,216.4z"/>
			<path id="XMLID_179_" class="st1" d="M245.2,212.6c0.7-0.6,0.9-2.1,2.4-1.5c1,0.4,0.5,1.2,0.2,1.9h0l0,0l0.2-0.1
				c-0.4,1.4-1.5,1.6-2.9,1.5c-2.8-0.1-5.6-0.1-8.4-0.2c-0.9,0-1.7,0-2.6,0c-1.8-0.2-3.8,1-5.4-0.6c0.9-1.4,2.4-0.7,3.7-0.6l0.4-0.1
				l0.4,0c1.1-2.2,2.3-1.6,3.5,0l0,0C239.6,212.7,242.4,211.7,245.2,212.6z"/>
			<path id="XMLID_178_" class="st1" d="M248.7,212.8c0.9-0.5,1.8-1,2.6-1.5c1.2,0.5,2.4,1,3.6,1.5
				C252.9,214.5,250.8,214.1,248.7,212.8z"/>
			<path id="XMLID_175_" class="st1" d="M221.9,218.1C221.9,218.1,221.9,218.1,221.9,218.1c-0.9-0.6-1.9-1.1-2.8,0
				c0.4,0.3,0.7,0.6,1.1,0.8c-0.7,0.7-1.5,1.4,0.4,1.7c2.1,0.3,3.6-0.3,4.8-1.8c1,2.3,2.8,0.7,4.3,0.7l0,0c0,0,0,0,0,0
				c1.3,0.2,2.5,0.6,3.8,0.6c1.5,0.1,1.2-0.6,0.6-1.3c0.7-0.7,1.6-0.9,2.6-0.9c0,0-0.1-0.1-0.1-0.1c0,0,0.1,0.1,0.1,0.1
				c2,0.1,4.1,0.1,6.1-0.5c-2.3-1.9-5.1-0.7-7.7-0.8c-0.9,0.3-1.8,0.5-2.6,0.8c-1.4-0.8-2.9-0.6-4.4-0.2v0c-0.6,0.3-1.1,0.5-1.7,0.8
				C224.8,215.1,223.4,217.9,221.9,218.1z M226.3,218L226.3,218L226.3,218L226.3,218z"/>
			<path id="XMLID_174_" class="st1" d="M218.5,214.3C218.5,214.3,218.5,214.3,218.5,214.3c-1.1,0-2.2,0.1-3.3,0.1
				c-2.4,0.4-4.8,0.8-6.9-0.8c-0.7,1.5-2.2,1.4-3.7,1.4c0-1.6,1-2.1,2.7-2.2v0c2.6,0.2,5.2,0.4,7.7,0.6c0.7-0.6,1.6-0.7,2.5-0.5
				c0,0,0,0,0,0c1.5-0.3,2.9,0.2,4.3,0.5C221.1,214.8,219.8,214.4,218.5,214.3z"/>
			<path id="XMLID_173_" class="st1" d="M193.7,218.7c0-0.4,0-0.9,0-1.3c1-0.1,2-0.2,3.2-0.2C196.2,218.7,194.9,218.6,193.7,218.7z"
				/>
			<path id="XMLID_172_" class="st1" d="M186.9,212.6L186.9,212.6c0.2-2.1,1.4-0.8,2.3-0.6c0.8,0,1.7,0.1,2.5,0.1
				c1-0.1,1.9,0.3,2.7,0.8c2,0.1,4.1-0.8,5.8,0.9c-0.9,0.9-2.2,0.3-3.2,0.7c0,0.2,0,0.4,0,0.6c-2.1,0.1-4.3,0.7-6.1-0.8h0
				c-0.9,0-1.8,0-2.7-0.1c-0.5-0.2-1.1-0.4-1.6-0.6c-1.2,0.3-2.3,0.5-3.5,0.8c-0.8-1.6-2.2-0.9-3.5-0.8c-0.3,0-0.6,0-0.8,0
				c0.1-1.8,1.6-2.2,3.4-2.2c0,0,0,0,0,0C183.7,211.8,185.3,212.2,186.9,212.6L186.9,212.6z"/>
			<path id="XMLID_171_" class="st1" d="M264.2,233.5c-1.7,0.1-2.9,0.6-4.3-0.5C261.3,232.6,262.5,232.7,264.2,233.5z"/>
		</g>
		<g id="XMLID_132_">
			<path id="XMLID_169_" class="st1" d="M346.5,226C346.5,226,346.5,226,346.5,226C346.5,226,346.5,226,346.5,226
				c-2.7-0.4-5.6,1-8.1-0.7c-2.8,1.2-5.9,1.1-8.9,1c2.7-2.5,6.1-1.3,9.3-1.3c0.1,0,0.2,0,0.3,0c4.3-0.1,8.6-0.2,13-0.3
				c2.9,0.1,5.8-0.8,8.5,0.7C355.9,226.5,351.2,226.3,346.5,226z"/>
			<path id="XMLID_168_" class="st1" d="M355.9,236.8c0.9-0.1,1.8-0.2,2.8-0.3c3.7,0.2,7.4,0.2,11.2,0.3c0,1,0.3,1.9,0.9,2.5h-8.9
				c-0.2,0-0.3,0-0.5,0c-1.1-0.1-2.2-0.2-3.3-0.3C356.6,238.8,355.5,238.3,355.9,236.8z"/>
			<path id="XMLID_167_" class="st1" d="M357.6,256.8c0.1-1.2,1.2-1.7,2.1-1.3c1.2,0.4-1,1.4,0,2.1c0.6,1.2,0.4,2.2-1.4,1.9
				c-1.3-0.2-2.8-0.8-2.9-2.1C355.5,256.3,356.8,256.8,357.6,256.8z"/>
			<path id="XMLID_166_" class="st1" d="M368.1,248.2c-1.3,1.8-2.7,0.9-4.2,0H368.1z"/>
			<path id="XMLID_165_" class="st1" d="M293.3,260.6c1.2,0.2,1.4,0.8,1.5,1.5c0.1,0.8-0.5,1.2-1.4,1.2c-0.9,0-1.5-0.5-1.2-1.3
				C292.3,261.5,292.9,261,293.3,260.6z"/>
			<path id="XMLID_164_" class="st1" d="M218.6,269.2c0.5,2.3-0.8,2.7-3.2,2.7C216.6,270.7,217,269.5,218.6,269.2z"/>
			<path id="XMLID_163_" class="st1" d="M144.4,219.3c-0.2,3.5-1.1,6.8-2.7,9.8c0.9-0.3,1.9-0.5,2.9-0.7c2.5-0.5,5.2-0.1,7.7-0.6
				c1.2-0.6,2.6-0.6,4-0.9c1.2-0.2,2.3,0.2,3.4,0.4c0.6,0.1,1.2,0.1,1.8,0.1c0.9,0,1.7,0,2.6,0c0.9,0,1.9,0,2.8,0
				c3.1-0.1,6.2,0.2,9.2-0.3c0.1,0,0.1-0.1,0.2-0.1c0.3,0,0.7,0,1,0c1.5,1.7,3,3.4,5.5,4c-0.2-1.2-1.1-2.1-2-3c0.4,0,0.7-0.1,1-0.2
				c0.1,0,0.2,0.1,0.3,0.1c3.3,0.4,6.6,0.1,9.9,0c0.8-0.2,1.6-0.1,2.4-0.2c1.1-0.4,2.2-0.2,3.2,0.4c0.4,0.2,0.8,0.3,1.2,0.3
				c3.2,0,6.5,0.8,9.7,0.3c0.1,0,0.2,0,0.2,0c0.3,0.3,0.7,0.4,1.4,0.2c0.2-0.1,0.3-0.2,0.3-0.3c0.1,0,0.3,0,0.4,0
				c9.7,1,19.3,0.7,28.9-0.5c1.4-0.2,2.7-0.3,3.5-1.4c1.3,2,3.7,1.6,5.7,1.6c3.8,0,7.6-0.8,11.4-0.8c0.7,0,1.5-0.1,2.2,0
				c0.9,0.2,1.8,0.1,2.7,0.1c0.6,0.3,1.2,0.4,1.9,0.4c0.1-0.1,0.1-0.2,0.2-0.3c0.8,0,1.5,0,2.3,0c0.2,0,0.5,0,0.7,0
				c0,0.1,0.1,0.1,0.1,0.2c0.3-0.1,0.6-0.2,1-0.3c0.4,0,0.7-0.1,1.1-0.1c0.3,0.2,0.7,0.5,1,0.7c3.7-0.1,7.4-0.1,11.1-0.2
				c3.1-0.2,6.2,0.3,9.2-0.8c0.9,0.3,1.8,0.5,2.8,0.1c3.4,0,6.8-0.1,10.2-0.1c2.8,0,5.5-0.1,8.3-0.1l0,0c1.9,0,3.7,0,5.6,0.1
				c0.2-0.2,0.5-0.3,0.8-0.3c-0.3,0.1-0.5,0.2-0.8,0.3c2.3-0.3,5.1,1.2,6.6-1.6c-1,0-1.9,0.1-2.9,0.1c-3.4,0-6.7,0-10.1,0.1
				c-2.5,0-5-0.1-7.5-0.1c-3.4,0-6.8,0-10.2,0.1c-2.5-0.3-4.9-0.5-7.4-0.8v0c-1.5-0.1-2.9-0.2-4.4-0.2l0,0c-1.9-0.8-3.9-0.6-5.8-0.6
				c-1.2,0-2.5,0-3.7,0c-13.4-0.4-26.8-0.4-40.3,0.3c-1.8,0-3.7,0-5.5,0.3c-11.5-0.9-22.9-1.4-34.5-1.6h0c-2.7-0.5-5.4-0.9-8.1,0
				c-3.3,0-6.5,0.1-9.8,0.1c-0.6,0-1.2,0-1.9,0c-8.9-1.1-18-0.6-26.8-2.5c-0.5-0.1-0.9-0.2-1.4-0.2c-0.9-0.3-1.8-0.8-2.7-1.2
				C144.4,219.1,144.4,219.2,144.4,219.3z"/>
			<path id="XMLID_159_" class="st1" d="M349.6,245.6c-0.4-0.3-0.8-0.6-1.2-0.9c0.4-2.1-1.1-2.8-3-3c-1.2-0.1-2.3,0.2-2.6,1.1
				c-2.3-0.6-4,0.1-5.2,1.9c-0.8-1-1.9-1.3-3.5-1.1c-0.2,0.1-0.4,0.1-0.7,0.2c-0.5-0.2-1.1-0.2-1.7,0c-0.7-1.3-1.7-1.2-2.7-0.8
				c-0.2-0.3-0.4-0.5-0.5-0.9c-0.8-0.6-1.7-0.7-2.7-0.7c-1.6-0.2-3.1,0.2-4.6,0.4c-0.3-0.5-0.5-0.9-0.8-1.4l0,0l0,0
				c0-0.5,0.1-0.9,0.1-1.4c-1.1-0.6-2.4-0.9-3.7-0.8c-2.8,0-5.6,0.2-8.3,0.9c-1.8-0.1-3.7-0.2-5.5-0.2c-1.9-1.8-4.2-2.6-7.1-2.3
				c-6.4,0.6-12.7-0.7-19.1-0.4c-1.4,0.1-2.6-0.1-3.5,1c0,0,0,0.1,0,0.1c-1,0-1.8,0.2-1.8,1.6l-0.4-0.1l-0.4,0
				c-1.9-0.4-3.7-1.8-5.6,0.1c-0.6,0-1.2-0.1-1.8-0.1c-2.3-2.9-4.4-2.5-6.4,0.3c-1.1,1.2-2.5,0.7-3.8,0.5c-0.9,0.1-1.7,0.1-2.6,0.2
				c-1.2-0.2-2.3-0.4-3.2,0.7c0.8,0.8,1.9,0.3,2.8,0.5c1.9,0.1,3.8,0.3,5.8,0.4c2.2,0.9,4.4,0.9,6.5,0c3.3,0,6.6-0.1,9.8-0.1
				c0.5,0.2,1,0.4,1.5,0.2c2.6,1.6,5.6,2.3,8.8,1.8c-2.9,1-6.3-0.9-8.8,1.5c-0.1,0.2-0.2,0.4-0.2,0.6c-12.4-0.1-24.7-0.9-37.1,0.2
				c-0.1-0.1-0.2-0.2-0.3-0.3c-2-1.3-4.3-1-6.6-0.9c-7.6,0.4-15.2,1.4-22.8,1.2c-0.9-0.2-1.8-0.1-2.8,0.1c-0.8-2.5-3-3.9-7.2-4.4
				c-0.1,0.1-0.2,0.1-0.3,0.2c-0.7-1.1-2-1.6-3.4-1.9c0.3,1.5,1.4,2.5,2.8,3.2v0c0.8,1.2,1.5,2.3-1,2.4c-0.4,0.2-0.7,0.4-1.1,0.7
				c-1.8-0.1-3.6-0.1-5.3-0.3c-1.3-0.2-2,0.1-2.1,0.7c-0.6-0.1-1.2-0.1-1.7-0.2c-1.5,0.3-3.1,0.6-4.6,0.8c0.6-0.3,1-0.8,1.2-1.8
				c-0.6-0.9-1.8-1.1-2.7-1.5c-1.5-0.8-3.1-1.1-4.9-0.9c-3.8,0.4-7.5,0.6-11.3,1c-0.2,0-0.5,0-0.7,0c0-0.1,0-0.2,0-0.2
				c1.5-0.4,1.4-1.4,0.9-2.4c0-0.3-0.1-0.7-0.1-1c0.1-0.2,0.1-0.4,0.2-0.6c0.6,0,1.1-0.1,1.7-0.1c2.2,0.6,3.8-0.4,5.4-1.4
				c-1.6-1.3-3.4-0.5-5.1-0.5c-0.2-0.2-0.4-0.5-0.7-0.6c-1.4-0.5-2.9-0.1-4.3-0.3c1.9-0.8,5.2,0.5,5.5-2.7
				c-5.2-0.4-10.3-0.6-15.5-0.2c-0.6-0.5-1.2-1-1.9-1.4c-2.6-0.7-5.2-0.2-7.8,0.2c-0.7,1.6-1.3,3.2-2,4.8c3.7,1.6,7,3.9,9.6,6.5
				c0.9,0.9,1.8,1.9,2.6,3c2.2,0.4,4.3,1.2,6.3,2.2c3.8,1.2,7.2,3.4,10,6.4c3,2.8,5.2,6.1,6.4,10c0,0,0,0,0,0
				c5.6-0.1,11.2,0,16.8-0.2c2.4-0.1,3.4-0.7,2.6-2.8c1.2,0.5,4-3,3.7,1.1c1.4,2,2.9,2,4.5,0.1c2.4-3.8,6.2-1,9.3-1.4l3.7,2.3l0,0
				c0.3,0.5,0.6,1.1,0.9,1.6c-1.1,0.8-3.4-2-3.7,1c3.4,2.7,5.8,1.9,7.4-1.7c0.3,0,0.6,0,1,0c0.4,1,0.9,1.9,2.2,2.2l0,0l0,0
				c2.2,0.1,4.5,0.5,6.6-0.4c0.2,0,0.4-0.1,0.6-0.2c10.2-1.8,20.3,0.3,30.4,0.1c2.3,1,4.6,1.1,7.1,0.1c2.3-1,4.7-1.4,7,0
				c1,0.9,2.2,0.7,3.4,0.7c1.7,0.7,3.4,0.8,5.7,0.3c-1.8-0.6-3.3-1.1-4.7-1.5l0,0.3c-0.1,0-0.1,0-0.2,0c0.1-0.1,0.1-0.2,0.2-0.3
				c-1.4-0.6-3.1-0.7-3.7-2.3c-2.2-1.2-4.4-0.9-6.5,0.1c-0.5-0.8-0.3-1.6,0.1-2.3c0.6-0.3,1.2-0.6,1.9-0.9c1.5,0,2.9,0,4.4,0
				c2,0.3,4.2,2.4,5.8-0.5c2.7-1.1,5.7,2,8.3-0.3c1.5-0.4,3.2-0.5,4.4-1.5c0.8-0.5,1.5-1,2.3-1.5c0.5,0.2,1.1,0.4,1.6,0.6
				c1,0.3,1.9,0.6,2.9,0.9h0c-0.1,0.5-2.2,1.3,0.1,1.5c2.6,0.3,3.9-2.2,6.3-2.4c0.3,0.3,0.6,0.5,0.9,0.8c1.1,0.4,1.6-0.1,1.9-0.9
				c0-0.1,0-0.3,0-0.4c1.4-5,1.4-5-4.7-3.5c-0.6,0-1.3,0-1.9,0c-0.6,0-1.2-0.1-1.8-0.1v0c0.4-1.3,0.8-2.6,0-3.9
				c8.1,0.3,15.7-3.6,24-2.5c2.3,0.3,4.4-0.2,6.6,1.6c2.2,1.9,3.1-0.6,3.7-2.2c1.5-0.1,2.9-0.2,4.4-0.2c1.5,0.2,3,0.5,3.9,1.7
				c-0.2,0.8-1.8,1.4-0.8,2.2c0.5,0.4,1.2-0.8,1.8-1.4c1-0.9,1.6-2,1.8-3.2c1.8,0.8,3.7,0.9,5.6,0.8v0l0,0c-0.6,0.4-1.3,0.9-2.1,1.4
				c1.8,0.5,2.4-0.4,3-1.3c0.3,0,0.6,0,0.9,0C353.7,243.9,350.4,246.2,349.6,245.6z M172.6,247.4c-0.1,0-0.2-0.1-0.3-0.1
				c1.1,0.2,2.3,0.3,3.4,0.2c0.6-0.1,1.4-0.1,2.1,0C176.1,247.6,174.4,247.6,172.6,247.4z M280.7,255.1c-0.7,0-1.5,0-1.7,0.9
				c0,0.2,0,0.3,0.1,0.5c-1.5,0-3-0.1-4.6,0c-1.2,0.2-2.2,0.8-3.3,1.2c-1.8,0-3.6,0-5.3,0c-0.9,0-1.8,0-2.7,0
				c-1-0.2-1.9-0.6-2.9-0.8c-0.6-0.3-1.3-0.5-2.1-0.5c-0.4-0.1-0.8-0.1-1.2,0c-0.5,0-1,0.1-1.5,0.1c-0.3-0.2-0.6-0.2-0.9-0.3
				c-0.3-0.2-0.7-0.3-1-0.4c-3.4-0.9-6.5,1.1-9.8,0.7c-0.2,0-0.3,0.1-0.5,0.1c-0.2-0.2-0.4-0.4-0.5-0.6c1.4-0.9,0.1-1.2-0.5-1.5
				c-0.5-0.3-1.3-0.3-1.3,0.4c0,0.4,0.6,0.8,0.9,1.2c-0.3,0.4-0.6,0.7-1.1,0.9c-0.6,0.1-1.2,0.1-1.8,0.2c-0.2-0.1-0.4-0.2-0.5-0.3
				c-2.4-3.6-2.8-0.8-3.6,0.4c-0.1,0-0.3,0-0.4,0c-0.4,0-0.8,0-1.2,0c-0.5-0.2-1.1-0.4-1.6-0.6c-0.9,0.1-1.9,0.2-2.8,0.3l0,0
				c-1.1-0.1-2.1,0.1-2.7,1c-0.1,0-0.2,0-0.3,0c-1.2-0.4-2.3-0.7-3.5-1.1c-0.2,0.5-0.1,0.8,0.1,1.1c-1.1,0-2,0.2-2.6,1
				c-0.9-0.9-2.2-1.2-3.5-1.5c-0.4,0-0.8,0-1.2,0.1c-0.8-1-2-1.5-3.7-1.6h0l0,0c-0.9-0.6-1.9-0.4-2.8,0l0,0l0,0
				c-0.6,0.2-1.2,0.2-1.7,0.1c0.4-0.7,0.9-1.4,1-2.2c1.5,0.4,3.1,0.2,4.3-0.5c0.5,0.1,1,0.1,1.5,0.2c6.8-0.5,13.7-1.1,20.6-1.1
				c0.5-0.1,0.9-0.2,1.3-0.5c1,0.7,2.2,0.6,3.6,0.2c2-1.8,4.8-0.9,7.2-1.4c6.9-0.5,13.8-0.1,20.7-0.2c2.2,0,4.5,0,6.6-0.8
				c-0.4,1.3,0.6,2.3,1.8,3.2c1,0.7,2.2,0.8,3.4,0.4c1.4-0.5,1.2-1.4,1-2.2c2.1,1.7,4.3,2.4,6.9,1.4c-0.1,0.7-0.1,1.3,0.3,1.9
				C285,255,282.7,253.7,280.7,255.1z"/>
			<path id="XMLID_158_" class="st1" d="M305.8,260.6c0.6,0.1,1.1,0.3,1.7,0.4c-1,1.2-2.4,2.1-3.6,0.7
				C303.3,261.1,305.1,260.9,305.8,260.6z"/>
			<path id="XMLID_157_" class="st1" d="M208.6,264.7c0.4-0.2,0.8,0,0.8,0.5c-0.2,0.6-0.6,1.2-1.4,1.3c-0.2,0-0.7-0.6-0.6-0.7
				C207.7,265.3,208.1,264.9,208.6,264.7z"/>
			<path id="XMLID_156_" class="st1" d="M366.4,258.4c0.6-0.1,1.2,0.1,1.2,0.8c0,0.2-0.6,0.5-1.3,1c-0.2-0.4-0.5-0.8-0.5-1.1
				C365.7,258.8,366.1,258.4,366.4,258.4z"/>
			<path id="XMLID_155_" class="st1" d="M341.9,254.4C341.9,254.4,341.9,254.4,341.9,254.4c0-2.3,1.7-2.2,3.5-1.6
				c0.8,0.2,2.1,0.6,1.7,1.6c-0.7,1.9-2.4-0.3-3.4,0.4c-0.2,0.2-0.5,0.3-0.7,0.5c0.2,1.2-0.7,2-1.7,1.4
				C340,255.8,342.1,255.3,341.9,254.4z"/>
			<path id="XMLID_154_" class="st1" d="M242.8,270.3c-0.9,0.2-1.7,0.3-3-0.4C241.2,269.7,242.2,269.3,242.8,270.3z"/>
			<path id="XMLID_153_" class="st1" d="M281.1,263.5c-0.1-0.1,0.2-0.3,0.3-0.6c0.3,0.2,0.7,0.4,1,0.6c0.3,0.3,0.2,0.8-0.4,0.6
				C281.7,264.1,281.4,263.8,281.1,263.5z"/>
			<path id="XMLID_152_" class="st1" d="M298.9,268.6c-1.7,0.2-2.9,0.8-4-0.3C296.1,267.8,297.2,267.6,298.9,268.6z"/>
			<path id="XMLID_151_" class="st1" d="M351.4,257.7c0.4,0,0.8,0.2,1.2,0.3c-0.3,0.3-0.5,0.6-0.6,0.6c-0.4,0-0.8-0.2-1.1-0.3
				C351,258.1,351.2,257.7,351.4,257.7z"/>
			<path id="XMLID_150_" class="st1" d="M220.6,221.8c0.2-0.1,0.3-0.4,0.5-0.4c0.2,0,0.5,0.1,0.8,0.2c-0.2,0.1-0.3,0.3-0.5,0.4
				C221.1,222,220.9,221.9,220.6,221.8z"/>
			<path id="XMLID_149_" class="st1" d="M263.9,222c-0.2,0-0.5-0.1-0.8-0.2c0.2-0.1,0.3-0.3,0.5-0.4c0.2,0.1,0.5,0.1,0.8,0.2
				C264.2,221.8,264.1,222,263.9,222z"/>
			<path id="XMLID_148_" class="st1" d="M359.5,235c0.6-0.8,1.3-1.6,1.9-2.4C361.9,234.1,361.1,234.8,359.5,235z"/>
			<path id="XMLID_147_" class="st1" d="M350.3,239.2c-0.9-0.1-1.8-0.2-2.8-0.3c-0.6,0.1-1.3,0.2-1.9,0.3c-2.2,1.6-4.1,1.7-5.6-0.8
				l0.1-0.2c-0.1-0.2-0.4-0.3-0.6-0.3c0.2,0.1,0.4,0.2,0.6,0.3c-1.2,0-2.5-0.1-3.7-0.1c-0.7,1.8-2.2,1.2-3.6,1l0,0
				c-2.8-0.2-5.5,0.9-8.3,0c0.9-0.5,1.7-1.1,2.6-1.6c1.5-0.2,3.1-0.8,4.6,0c1.3-0.2,2.7-0.4,4-0.7c0.6,0,1.1,0,1.7,0.1
				c3-0.4,6.1-0.4,9.1,0c1.6,0,3.3-0.7,4.7,0.6c0.6-0.1,1.1-0.1,1.7-0.2c0.4,0.4,0.5,0.8,0.2,1.3
				C352.5,239.5,351.2,238.8,350.3,239.2z"/>
			<path id="XMLID_146_" class="st1" d="M293.4,231.6c2.7-1.5,4.6-2,4.1,1.8c-0.3,0-0.6,0-0.9,0
				C295.8,232.5,293.9,233.2,293.4,231.6z"/>
			<path id="XMLID_145_" class="st1" d="M282,234.3c-1.5,0.2-3.1,0.5-4.6,0.7C278.5,232.4,280.3,233.5,282,234.3z"/>
			<path id="XMLID_144_" class="st1" d="M345,230.5c0.9-1.3,1.8-1.3,2.8-0.8c0.2,0.1,0.3,0.8,0.2,0.9
				C347.1,231.3,346.1,231.1,345,230.5z"/>
			<path id="XMLID_143_" class="st1" d="M343.2,232.1c0.1,0,0.3,0.3,0.5,0.5c-0.3,0.2-0.6,0.4-0.9,0.6c-0.3-0.3-0.4-0.4-0.6-0.6
				C342.5,232.4,342.8,232.2,343.2,232.1z"/>
			<path id="XMLID_142_" class="st1" d="M180.6,237.3c1.9-0.7,3.3-0.9,4.8-0.1C184.1,237.3,182.7,238.5,180.6,237.3z"/>
			<path id="XMLID_141_" class="st1" d="M255.8,233.2c0.8-0.7,0.9-2.2,2.5-1.6c1.1,0.4,0.5,1.3,0.2,2h0l0,0l0.2-0.1
				c-0.4,1.5-1.6,1.7-3.1,1.7c-3-0.1-6-0.1-9-0.2c-0.9,0-1.8,0-2.8,0c-1.9-0.2-4.1,1.1-5.7-0.7c1-1.5,2.5-0.8,3.9-0.7l0.4-0.1l0.5,0
				c1.2-2.3,2.5-1.7,3.8,0l0,0C249.7,233.4,252.7,232.2,255.8,233.2z"/>
			<path id="XMLID_140_" class="st1" d="M259.5,233.4c0.9-0.5,1.9-1.1,2.8-1.6c1.3,0.5,2.5,1.1,3.8,1.6
				C263.9,235.3,261.7,234.8,259.5,233.4z"/>
			<path id="XMLID_137_" class="st1" d="M230.9,239.1L230.9,239.1c-1-0.7-2-1.1-3-0.1c0.4,0.3,0.8,0.6,1.2,0.9
				c-0.8,0.8-1.6,1.5,0.5,1.8c2.3,0.4,3.8-0.3,5.1-1.9c1.1,2.4,3,0.8,4.6,0.7l0,0c0,0,0,0,0,0c1.3,0.2,2.7,0.6,4,0.7
				c1.6,0.1,1.3-0.7,0.7-1.4c0.7-0.8,1.7-0.9,2.8-0.9c0,0-0.1-0.1-0.1-0.1c0,0,0.1,0.1,0.1,0.1c2.2,0.1,4.4,0.1,6.5-0.5
				c-2.5-2.1-5.5-0.8-8.3-0.9c-0.9,0.3-1.9,0.6-2.8,0.9c-1.5-0.8-3.1-0.7-4.7-0.2v0c-0.6,0.3-1.2,0.6-1.8,0.8
				C233.9,235.9,232.4,239,230.9,239.1z M235.5,239.1L235.5,239.1L235.5,239.1L235.5,239.1z"/>
			<path id="XMLID_136_" class="st1" d="M227.2,235C227.2,235,227.2,235,227.2,235c-1.2,0-2.4,0.1-3.5,0.1c-2.6,0.4-5.1,0.9-7.4-0.8
				c-0.7,1.6-2.4,1.5-3.9,1.5c0-1.7,1.1-2.3,2.9-2.3v0c2.8,0.2,5.5,0.4,8.3,0.7c0.8-0.6,1.7-0.7,2.7-0.6c0,0,0,0,0,0
				c1.6-0.4,3.1,0.2,4.6,0.5C230,235.6,228.5,235.1,227.2,235z"/>
			<path id="XMLID_135_" class="st1" d="M200.6,239.8c0-0.5,0-0.9,0-1.4c1.1-0.1,2.2-0.2,3.4-0.3
				C203.4,239.8,201.9,239.7,200.6,239.8z"/>
			<path id="XMLID_134_" class="st1" d="M193.3,233.2C193.3,233.2,193.4,233.2,193.3,233.2c0.2-2.3,1.5-0.9,2.4-0.6
				c0.9,0,1.8,0.1,2.7,0.1c1.1-0.1,2,0.3,2.9,0.8c2.1,0.1,4.4-0.8,6.2,0.9c-1,0.9-2.3,0.3-3.4,0.7c0,0.2,0,0.4,0,0.6
				c-2.2,0.1-4.6,0.8-6.5-0.9h0c-1,0-1.9,0-2.9-0.1c-0.6-0.2-1.2-0.5-1.8-0.7c-1.2,0.3-2.5,0.5-3.7,0.8c-0.8-1.7-2.4-1-3.8-0.9
				c-0.3,0-0.6,0-0.9,0c0.1-2,1.7-2.4,3.6-2.4l0,0C189.9,232.3,191.6,232.8,193.3,233.2L193.3,233.2z"/>
			<path id="XMLID_133_" class="st1" d="M276,255.8c-1.8,0.1-3.1,0.6-4.6-0.5C273,254.8,274.2,254.9,276,255.8z"/>
		</g>
		<g id="XMLID_130_">
			<path id="XMLID_131_" class="st1" d="M165.2,11.8c-16.7,0-32.3,3-46.8,8.9C104,26.9,91.6,35.6,81.4,46.6
				c-10.5,11-18.6,24.2-24.5,39.7c-5.9,15.5-8.9,32.4-8.9,50.9c0,18.7,2.9,36,8.9,51.7c5.9,16.1,14.1,29.9,24.5,41.5
				c10.5,11.6,22.8,20.7,37.1,27.2c14.2,6.5,29.8,9.8,46.8,9.8h58.8c-0.9-1.3-1.6-2.6-2.4-4c-5.4-0.1-10.4-1.5-15-4.2
				c-2.1-1.6-4.2-3.2-6.3-4.8c-3.8-3.9-6.5-8.4-8-13.7l-1.1-8.2c-0.1-3.9,0.6-7.5,2.2-10.9c-0.1-0.9-0.2-1.8-0.2-2.7
				c-0.3-5.7,1.9-10.7,5.2-15.7l-33.2-1.3c-8.4,0-15.9-1.5-22.7-4.5c-7-3-13-7.1-18-12.5c-5.2-5.1-9.3-11.4-12.2-19.2
				c-2.7-7.7-4.1-16.1-4.1-25c0-8.9,1.5-17.4,4.4-25.4c2.9-7.4,6.9-14,11.9-19.6c5.2-5.4,11.2-9.7,18-12.9c7-3,14.6-4.5,22.7-4.5
				l89.5,0.9l46.4-67.4H165.2z"/>
		</g>
		<g id="XMLID_128_">
			<radialGradient id="XMLID_19_" cx="119.211" cy="56.6845" r="113.8635" gradientUnits="userSpaceOnUse">
				<stop  offset="0" style="stop-color:#939598"/>
				<stop  offset="8.912881e-002" style="stop-color:#898A8C"/>
				<stop  offset="0.261" style="stop-color:#706F70"/>
				<stop  offset="0.4983" style="stop-color:#494748"/>
				<stop  offset="0.7894" style="stop-color:#171213"/>
				<stop  offset="0.7977" style="stop-color:#151011"/>
				<stop  offset="1" style="stop-color:#151011"/>
			</radialGradient>
			<path id="XMLID_129_" class="st2" d="M221.7,263.4c-5.4-0.1-10.4-1.5-15-4.2c-2.1-1.6-4.2-3.2-6.3-4.8c-3.8-3.9-6.5-8.4-8-13.7
				l-1.1-8.2c-0.1-3.9,0.6-7.5,2.2-10.9c-0.1-0.9-0.2-1.8-0.2-2.7c-0.3-5.7,1.9-10,5.2-15.1l-33.2-1.9c-8.4,0-15.9-1.5-22.7-4.5
				c-7-3-13-7.1-18-12.5c-5.2-5.1-9.3-11.4-12.2-19.2c-2.7-7.7-4.1-16.1-4.1-25c0-125.9,179.2-128.9,192.1-128.9H165.2
				c-16.7,0-32.3,3-46.8,8.9C104,26.9,91.6,35.6,81.4,46.6c-10.5,11-18.6,24.2-24.5,39.7c-5.9,15.5-8.9,32.4-8.9,50.9
				c0,18.7,2.9,36,8.9,51.7c5.9,16.1,14.1,29.9,24.5,41.5c10.5,11.6,22.8,20.7,37.1,27.2c14.2,6.5,29.8,9.8,46.8,9.8h58.8
				C223.2,266.1,222.4,264.7,221.7,263.4z"/>
		</g>
	</g>
	<g id="XMLID_85_">
		<rect id="XMLID_89_" x="158.5" y="233.1" class="st3" width="3.9" height="3.2"/>
		<path id="XMLID_87_" class="st3" d="M295.1,236.4h-7.4v-3.2h7.4V236.4z M280.3,236.4h-7.4v-3.2h7.4V236.4z M265.6,236.4h-7.4v-3.2
			h7.4V236.4z M250.8,236.4h-7.4v-3.2h7.4V236.4z M236.1,236.4h-7.4v-3.2h7.4V236.4z M221.3,236.4H214v-3.2h7.4V236.4z M206.6,236.4
			h-7.4v-3.2h7.4V236.4z M191.8,236.4h-7.4v-3.2h7.4V236.4z M177.1,236.4h-7.4v-3.2h7.4V236.4z"/>
		<rect id="XMLID_91_" x="302.4" y="233.1" class="st3" width="3.9" height="3.2"/>
	</g>
	<rect id="XMLID_84_" x="158.5" y="209.7" class="st3" width="147.9" height="3.2"/>
	<rect id="XMLID_83_" x="158.5" y="255.9" class="st3" width="147.9" height="3.2"/>
	<g id="XMLID_86_">
		<path id="XMLID_231_" class="st4" d="M147.6,199.2l2.6-7.3c0,0-0.5-0.2-1.5-0.6c-0.5-0.2-1.1-0.4-1.8-0.7
			c-0.7-0.3-1.5-0.7-2.3-1.1c-0.4-0.2-0.9-0.4-1.4-0.7c-0.5-0.3-1-0.5-1.5-0.8c-0.5-0.3-1-0.6-1.6-0.9c-0.5-0.3-1.1-0.7-1.6-1.1
			c-1.1-0.7-2.3-1.6-3.5-2.5c-0.6-0.4-1.2-1-1.8-1.5c-0.3-0.3-0.6-0.5-0.9-0.8c-0.3-0.3-0.6-0.6-0.9-0.8
			c-4.8-4.5-9.3-10.9-12.2-18.7c-1.5-3.9-2.6-8.1-3.3-12.4c-0.7-4.3-1-8.9-0.9-13.3c0-0.5,0.1-1.1,0.1-1.6l0.2-1.7
			c0.1-1.1,0.2-2.3,0.4-3.4c0.2-1.1,0.3-2.2,0.5-3.3c0.2-1.1,0.5-2.2,0.7-3.2c1-4.2,2.5-8.3,4.4-11.9c1.9-3.6,4.2-6.9,6.7-9.6
			c2.5-2.7,5.3-5,8-6.8c5.4-3.7,10.7-5.6,14.4-6.6c3.7-1,5.9-1.2,5.7-1.2l-0.7-7.8c-0.2,0-2.8,0.2-7.1,1.4
			c-4.3,1.2-10.3,3.4-16.7,7.6c-3.2,2.1-6.4,4.8-9.4,8c-3,3.2-5.7,7.1-7.9,11.3c-2.2,4.2-3.9,8.9-5,13.7c-0.3,1.2-0.5,2.4-0.8,3.6
			c-0.2,1.2-0.4,2.4-0.6,3.7c-0.2,1.2-0.3,2.4-0.4,3.6l-0.2,1.8c-0.1,0.7-0.1,1.3-0.1,1.9c-0.2,5,0.2,10,0.9,14.8
			c0.8,4.8,2,9.5,3.7,14c3.3,8.8,8.5,16.4,14.1,21.6c0.3,0.3,0.7,0.7,1,1c0.4,0.3,0.7,0.6,1.1,0.9c0.7,0.6,1.4,1.2,2.1,1.7
			c1.4,1,2.7,2.1,4,2.9c0.6,0.4,1.3,0.8,1.9,1.2c0.6,0.4,1.2,0.7,1.8,1c0.6,0.3,1.1,0.6,1.7,0.9c0.5,0.3,1.1,0.5,1.6,0.7
			c1,0.5,1.9,0.9,2.7,1.2c0.8,0.3,1.5,0.6,2,0.8C147,198.9,147.6,199.2,147.6,199.2z"/>
		<path id="XMLID_126_" class="st3" d="M150.2,191.8l-2.6,7.3c0,0-0.6-0.2-1.7-0.7c-0.5-0.2-1.2-0.5-2-0.8c-0.8-0.3-1.7-0.8-2.7-1.2
			c-0.5-0.2-1-0.5-1.6-0.7c-0.5-0.3-1.1-0.6-1.7-0.9c-0.6-0.3-1.2-0.7-1.8-1c-0.6-0.4-1.2-0.8-1.9-1.2c-1.3-0.8-2.6-1.8-4-2.9
			c-0.7-0.5-1.4-1.1-2.1-1.7c-0.3-0.3-0.7-0.6-1.1-0.9c-0.3-0.3-0.7-0.7-1-1c-5.6-5.2-10.8-12.7-14.1-21.6c-1.7-4.4-2.9-9.1-3.7-14
			c-0.8-4.8-1.1-9.8-0.9-14.8c0-0.6,0.1-1.3,0.1-1.9l0.2-1.8c0.1-1.2,0.2-2.4,0.4-3.6c0.2-1.2,0.4-2.5,0.6-3.7
			c0.3-1.2,0.5-2.4,0.8-3.6c1.2-4.8,2.8-9.4,5-13.7c2.2-4.2,4.9-8.1,7.9-11.3c3-3.2,6.2-5.9,9.4-8c6.4-4.3,12.4-6.4,16.7-7.6
			c4.3-1.2,6.9-1.4,7.1-1.4l0.7,7.8c0.2,0-2,0.2-5.7,1.2c-3.7,1-8.9,2.9-14.4,6.6c-2.7,1.8-5.5,4.1-8,6.8c-2.5,2.7-4.8,6-6.7,9.6
			c-1.9,3.6-3.3,7.7-4.4,11.9c-0.2,1.1-0.5,2.1-0.7,3.2c-0.2,1.1-0.3,2.2-0.5,3.3c-0.2,1.1-0.2,2.3-0.4,3.4l-0.2,1.7
			c0,0.5-0.1,1.1-0.1,1.6c-0.2,4.4,0.2,8.9,0.9,13.3c0.7,4.4,1.8,8.6,3.3,12.4c2.9,7.8,7.4,14.2,12.2,18.7c0.3,0.3,0.6,0.6,0.9,0.8
			c0.3,0.3,0.6,0.5,0.9,0.8c0.6,0.5,1.2,1,1.8,1.5c1.2,0.9,2.3,1.8,3.5,2.5c0.6,0.4,1.1,0.7,1.6,1.1c0.5,0.3,1.1,0.6,1.6,0.9
			c0.5,0.3,1,0.6,1.5,0.8c0.5,0.2,0.9,0.4,1.4,0.7c0.9,0.4,1.6,0.8,2.3,1.1c0.7,0.3,1.3,0.5,1.8,0.7
			C149.7,191.6,150.2,191.8,150.2,191.8z"/>
		<path id="XMLID_125_" class="st5" d="M144.1,90.1l-3.1-7.2c0,0,0.4-0.2,1.1-0.4c0.6-0.3,1.5-0.6,2.4-0.9c1.7-0.6,3.5-1.1,3.5-1.1
			l2.1,7.5c0,0-1.5,0.4-3,1c-0.7,0.3-1.5,0.5-2,0.8C144.5,90,144.1,90.1,144.1,90.1z"/>
		<path id="XMLID_124_" class="st5" d="M132.7,97l-4.9-6c0,0,0.3-0.3,0.9-0.7c0.6-0.4,1.3-1,2-1.5c0.8-0.5,1.5-1,2.1-1.4
			c0.6-0.4,1-0.6,1-0.6l4.1,6.7c0,0-0.3,0.2-0.8,0.5c-0.5,0.3-1.1,0.8-1.8,1.2c-0.6,0.5-1.3,0.9-1.7,1.3C133,96.7,132.7,97,132.7,97
			z"/>
		<path id="XMLID_123_" class="st5" d="M123.8,106.8l-6.5-4.3c0,0,0.3-0.4,0.6-1c0.4-0.6,1-1.3,1.5-2.1c0.3-0.4,0.6-0.7,0.8-1.1
			c0.3-0.3,0.5-0.6,0.8-0.9c0.5-0.5,0.8-0.9,0.8-0.9l5.8,5.2c0,0-0.3,0.3-0.6,0.7c-0.2,0.2-0.4,0.5-0.7,0.8
			c-0.2,0.3-0.5,0.6-0.7,0.9c-0.5,0.6-1,1.2-1.3,1.7C124,106.5,123.8,106.8,123.8,106.8z"/>
		<path id="XMLID_122_" class="st5" d="M118.1,118.9l-7.4-2.3c0,0,0.6-1.7,1.2-3.5c0.4-0.8,0.7-1.7,1-2.3c0.1-0.3,0.2-0.6,0.3-0.8
			c0.1-0.2,0.1-0.3,0.1-0.3l7.1,3.2c0,0,0,0.1-0.1,0.2c-0.1,0.2-0.2,0.4-0.3,0.7c-0.2,0.5-0.5,1.3-0.8,2
			C118.6,117.4,118.1,118.9,118.1,118.9z"/>
		<path id="XMLID_121_" class="st5" d="M115.5,132.3l-7.8-0.8c0,0,0-0.4,0.1-1.1c0.1-0.7,0.1-1.5,0.3-2.4c0.1-0.9,0.3-1.8,0.4-2.5
			c0.1-0.3,0.1-0.6,0.1-0.8c0-0.2,0.1-0.3,0.1-0.3l7.7,1.4c0,0,0,0.1-0.1,0.3c0,0.2-0.1,0.4-0.1,0.7c-0.1,0.6-0.2,1.4-0.3,2.2
			c-0.1,0.8-0.2,1.6-0.3,2.2C115.6,131.9,115.5,132.3,115.5,132.3z"/>
		<path id="XMLID_120_" class="st5" d="M115.6,146l-7.8,0.9c0,0-0.2-1.8-0.3-3.6c-0.1-1.8-0.2-3.6-0.2-3.6l7.8-0.1
			c0,0,0,1.6,0.1,3.2C115.4,144.4,115.6,146,115.6,146z"/>
		<path id="XMLID_96_" class="st5" d="M118.5,159.3l-7.4,2.4c0,0-0.1-0.4-0.3-1.1c-0.2-0.6-0.4-1.5-0.7-2.4
			c-0.3-0.9-0.5-1.8-0.6-2.4c-0.2-0.7-0.3-1.1-0.3-1.1l7.6-1.7c0,0,0.1,0.4,0.2,1c0.1,0.6,0.3,1.4,0.5,2.1c0.2,0.8,0.4,1.6,0.6,2.1
			C118.4,158.9,118.5,159.3,118.5,159.3z"/>
		<path id="XMLID_95_" class="st5" d="M124.2,171.5l-6.6,4.2c0,0-0.2-0.4-0.6-1c-0.2-0.3-0.4-0.6-0.6-1c-0.2-0.4-0.4-0.8-0.6-1.2
			c-0.4-0.8-0.9-1.6-1.2-2.2c-0.3-0.6-0.5-1-0.5-1l7-3.3c0,0,0.2,0.4,0.4,0.9c0.2,0.5,0.6,1.2,1,1.9c0.2,0.3,0.4,0.7,0.6,1
			c0.2,0.3,0.4,0.6,0.5,0.9C124,171.2,124.2,171.5,124.2,171.5z"/>
		<path id="XMLID_94_" class="st5" d="M132.8,181.7l-5.2,5.8c0,0-0.1-0.1-0.2-0.2c-0.1-0.1-0.4-0.3-0.6-0.6
			c-0.5-0.5-1.2-1.1-1.8-1.8c-0.7-0.6-1.3-1.3-1.7-1.8c-0.5-0.5-0.8-0.9-0.8-0.9l5.9-5.1c0,0,0.3,0.3,0.7,0.7
			c0.4,0.4,0.9,1.1,1.5,1.6c0.6,0.6,1.1,1.1,1.6,1.5c0.2,0.2,0.4,0.4,0.5,0.5C132.8,181.7,132.8,181.7,132.8,181.7z"/>
		<path id="XMLID_93_" class="st5" d="M144,189.2l-3.5,7c0,0-0.4-0.2-1-0.5c-0.6-0.3-1.4-0.8-2.2-1.2c-0.4-0.2-0.8-0.4-1.2-0.7
			c-0.4-0.2-0.7-0.4-1-0.6c-0.6-0.4-1-0.6-1-0.6l4.3-6.5c0,0,0.3,0.2,0.8,0.5c0.3,0.2,0.5,0.4,0.9,0.6c0.3,0.2,0.7,0.4,1,0.6
			c0.7,0.4,1.4,0.8,1.9,1.1C143.6,189,144,189.2,144,189.2z"/>
	</g>
	<path id="XMLID_81_" d="M154.9,175.1"/>
</g>
</svg>
